<?xml version="1.0" encoding="iso-8859-1"?>
<!-- Generator: Adobe Illustrator 18.1.1, SVG Export Plug-In . SVG Version: 6.00 Build 0)  -->
<svg version="1.1" id="Capa_1" xmlns="http://www.w3.org/2000/svg" xmlns:xlink="http://www.w3.org/1999/xlink" x="0px" y="0px"
	 viewBox="0 0 1024 1024" style="enable-background:new 0 0 1024 1024;" xml:space="preserve">
<g>
	<path d="M975.343,191H646.996v-65.798C646.996,56.015,590.858,0,521.679,0h-6.576c-69.194,0-125.107,56.015-125.107,125.202V191
		H48.657c-16.643,0-30.132,13.357-30.132,30s13.489,30,30.132,30h91.339v743.086c0,16.643,13.442,29.914,30.085,29.914h696.613
		c16.636,0,30.302-13.27,30.302-29.914V251h78.346c16.636,0,30.132-13.357,30.132-30S991.978,191,975.343,191z M449.996,125.202
		c0-35.962,29.145-65.202,65.107-65.202h6.576c35.955,0,65.317,29.239,65.317,65.202V191h-137V125.202z M836.996,964h-637V251h637
		V964z"/>
	<path d="M345.996,819.421c13.316,0,24-10.79,24-24.106V419.556c0-13.316-10.684-24.106-24-24.106c-13.316,0-24,10.79-24,24.106
		v375.759C321.996,808.632,332.68,819.421,345.996,819.421z"/>
	<path d="M693.996,819.421c13.308,0,24-10.79,24-24.106V419.556c0-13.316-10.692-24.106-24-24.106c-13.308,0-24,10.79-24,24.106
		v375.759C669.996,808.632,680.688,819.421,693.996,819.421z"/>
	<path d="M517.996,819.421c13.308,0,24-10.79,24-24.106V419.556c0-13.316-10.692-24.106-24-24.106c-13.308,0-24,10.79-24,24.106
		v375.759C493.996,808.632,504.688,819.421,517.996,819.421z"/>
</g>
<g>
</g>
<g>
</g>
<g>
</g>
<g>
</g>
<g>
</g>
<g>
</g>
<g>
</g>
<g>
</g>
<g>
</g>
<g>
</g>
<g>
</g>
<g>
</g>
<g>
</g>
<g>
</g>
<g>
</g>
</svg>
